<?xml version="1.0" standalone="no"?>
<!DOCTYPE svg PUBLIC "-//W3C//DTD SVG 20010904//EN"
 "http://www.w3.org/TR/2001/REC-SVG-20010904/DTD/svg10.dtd">
<svg version="1.0" xmlns="http://www.w3.org/2000/svg"
 width="261.000000pt" height="261.000000pt" viewBox="0 0 261.000000 261.000000"
 preserveAspectRatio="xMidYMid meet">
<metadata>
Created by potrace 1.14, written by Peter Selinger 2001-2017
</metadata>
<g transform="translate(0.000000,261.000000) scale(0.100000,-0.100000)"
fill="#000000" stroke="none">
<path d="M2042 2580 c-182 -88 -285 -307 -376 -805 -15 -77 -28 -151 -31 -165
-3 -14 -10 -52 -15 -85 -41 -240 -102 -447 -166 -562 -39 -71 -119 -146 -172
-164 -54 -17 -64 -27 -51 -51 9 -16 17 -19 41 -14 96 19 191 107 252 230 67
136 105 284 181 696 111 600 203 807 387 877 44 17 53 24 53 44 0 33 -32 33
-103 -1z"/>
<path d="M1273 1855 c-113 -52 -208 -188 -277 -396 -30 -90 -74 -270 -90 -364
-2 -16 -14 -82 -26 -145 -12 -63 -24 -128 -27 -145 -31 -195 -90 -410 -143
-523 -47 -101 -130 -189 -200 -212 -29 -10 -46 -22 -48 -34 -6 -28 16 -36 63
-21 161 48 266 227 349 590 17 77 75 379 83 435 10 72 63 300 89 381 71 226
157 344 284 393 51 20 64 34 48 53 -16 19 -47 16 -105 -12z"/>
</g>
</svg>
