<?xml version="1.0" encoding="utf-8"?>
<!-- Generator: Adobe Illustrator 25.4.1, SVG Export Plug-In . SVG Version: 6.00 Build 0)  -->
<svg version="1.1" id="Layer_1" xmlns="http://www.w3.org/2000/svg" xmlns:xlink="http://www.w3.org/1999/xlink" x="0px" y="0px"
	 viewBox="0 0 137.4 211.2" style="enable-background:new 0 0 137.4 211.2;" xml:space="preserve">
<g>
	<g>
		<path d="M64.6,152.2c-1.1,0-2-0.7-2.2-1.8c-0.2-1.2,0.6-2.4,1.8-2.6c20.2-4,26.3-37.5,32.1-70c6.4-35.5,13.1-72.3,38.4-77.7
			c1.2-0.3,2.4,0.5,2.7,1.7s-0.5,2.4-1.7,2.7c-22.4,4.8-28.7,40.1-34.9,74.1c-6.4,35.5-12.5,69-35.7,73.6
			C64.9,152.2,64.8,152.2,64.6,152.2z"/>
	</g>
	<g>
		<path d="M2.3,211.2c-1.1,0-2-0.7-2.2-1.8c-0.2-1.2,0.6-2.4,1.8-2.6c20.2-4,26.3-37.5,32.1-70c6.4-35.6,13-72.3,38.3-77.8
			c1.2-0.3,2.4,0.5,2.7,1.7c0.3,1.2-0.5,2.4-1.7,2.7c-22.4,4.8-28.7,40.1-34.9,74.1c-6.4,35.5-12.5,69-35.7,73.6
			C2.5,211.2,2.4,211.2,2.3,211.2z"/>
	</g>
</g>
</svg>
