<svg id="Layer_1" data-name="Layer 1" xmlns="http://www.w3.org/2000/svg" viewBox="0 0 217.27 36.16"><defs><style>.cls-1{fill:#1d1d1b;}</style></defs><g id="Layer_2" data-name="Layer 2"><g id="Layer_1-2" data-name="Layer 1-2"><path class="cls-1" d="M161.05,18.08a11.71,11.71,0,0,0-11.42-12h-2.27a1.46,1.46,0,0,0-1.46,1.46v2.7a1.49,1.49,0,0,0,1.53,1.46h1.82a6.41,6.41,0,0,1,.5,12.81h-2.28a1.5,1.5,0,0,0-1.57,1.43v2.72a1.45,1.45,0,0,0,1.46,1.42h1.89a11.71,11.71,0,0,0,11.8-11.61Z"/><path class="cls-1" d="M158.36,18.1h0a2.65,2.65,0,0,1-2.65,2.65H58.88a2.65,2.65,0,0,1-2.65-2.65h0a2.65,2.65,0,0,1,2.65-2.65h96.83A2.65,2.65,0,0,1,158.36,18.1Z"/><path class="cls-1" d="M157.05,20.87H57.83a1.46,1.46,0,0,1-1.6-1.3,1.5,1.5,0,0,1,0-.3V16.94a1.46,1.46,0,0,1,1.29-1.6h99.53Z"/><path class="cls-1" d="M148.65,11.69h-1.6a1.46,1.46,0,0,1-1.6-1.29,1.15,1.15,0,0,1,0-.32V7.69a1.46,1.46,0,0,1,1.29-1.61h1.9Z"/><path class="cls-1" d="M148.27,30.08h-1.22a1.47,1.47,0,0,1-1.61-1.3,1.08,1.08,0,0,1,0-.31V26.08a1.45,1.45,0,0,1,1.33-1.57,1.22,1.22,0,0,1,.27,0h1.22Z"/></g></g></svg>