<svg xmlns="http://www.w3.org/2000/svg" viewBox="0 0 16.84 16.85"><defs><style>.cls-1{fill:#fff;stroke:#f97878;stroke-miterlimit:10;}.cls-2{fill:#f97878;}</style></defs><g id="Layer_2" data-name="Layer 2"><g id="Layer_1-2" data-name="Layer 1"><path class="cls-1" d="M16.34,8.43a7.92,7.92,0,0,1-2.69,6c-.18.16-.37.31-.56.45a7.44,7.44,0,0,1-1.8,1,1.66,1.66,0,0,1-.31.12,6.3,6.3,0,0,1-1,.26,7.16,7.16,0,0,1-1.41.17H8.42a6.51,6.51,0,0,1-.77,0l-.5-.07A6.52,6.52,0,0,1,6.07,16l-.3-.1-.53-.2A7.83,7.83,0,0,1,3.94,15c-.22-.16-.44-.32-.65-.5a5.9,5.9,0,0,1-.57-.55A7.89,7.89,0,0,1,1.3,5a6.45,6.45,0,0,1,.31-.58,7.89,7.89,0,0,1,.51-.77A7.62,7.62,0,0,1,3.3,2.39l.39-.31A2.47,2.47,0,0,1,4,1.87,7.92,7.92,0,0,1,8.42.5,7.24,7.24,0,0,1,10,.66,8,8,0,0,1,11.19,1a2.87,2.87,0,0,1,.37.15,5,5,0,0,1,.52.25,7.36,7.36,0,0,1,1.16.74,4.16,4.16,0,0,1,.39.32,10.18,10.18,0,0,1,.74.73l0,0c.16.18.3.36.44.55a7.25,7.25,0,0,1,.47.75A7.8,7.8,0,0,1,16.34,8.43Z"/><path class="cls-2" d="M11.58,1A8,8,0,0,0,10.37.66H9.5L7.22,5.73a1.11,1.11,0,0,1-2,0L3.69,2.39A7.62,7.62,0,0,0,2.51,3.62,7.89,7.89,0,0,0,2,4.39,6.45,6.45,0,0,0,1.69,5L2,5.56a13.53,13.53,0,0,1,1.36,5.92,13.43,13.43,0,0,1-.23,2.44c0,.17-.07.35-.11.52.21.18.44.35.66.51a7.88,7.88,0,0,0,1.88.94l.09-.2L12,1.15A2.87,2.87,0,0,0,11.58,1Z"/><path class="cls-2" d="M13.82,6.21a13,13,0,0,0-1.13,5.32A13.25,13.25,0,0,0,13,14.32a6,6,0,0,1-.57.46,3.41,3.41,0,0,1-1.19.76c-.16-.43.32-2.41-.93-2.09-.78.1-1.58,2.28-1.74,2.84a2.71,2.71,0,0,1-1,.06,7,7,0,0,1-.8,0L13,2.05A8,8,0,0,1,14.23,3.4a7.77,7.77,0,0,1,.48.78Z"/></g></g></svg>