<svg xmlns="http://www.w3.org/2000/svg" viewBox="0 0 54.85 67.64"><defs><style>.cls-1{fill:none;stroke:#000;stroke-miterlimit:10;stroke-width:4px;}.cls-2{fill:#f97878;}.cls-3{fill:#ffcaca;}</style></defs><g id="Layer_2" data-name="Layer 2"><g id="Layer_1-2" data-name="Layer 1"><polygon class="cls-1" points="20.1 25.76 3.04 65.62 13.37 65.54 25.89 37.12 38.84 65.35 51.64 65.25 32.53 26.49 31.5 24.4 41.34 2.02 30.19 2.11 25.71 12.6 20.68 2.18 7.5 2.28 20.1 25.76"/><polygon class="cls-2" points="3.04 65.62 20.1 25.76 25.89 37.12 13.37 65.54 3.04 65.62"/><polygon class="cls-2" points="25.71 12.6 30.19 2.11 41.34 2.02 31.5 24.4 25.71 12.6"/><polygon class="cls-2" points="7.5 2.28 20.68 2.18 25.71 12.6 20.1 25.76 7.5 2.28"/><polygon class="cls-3" points="24.98 37.54 19 25.8 25.64 10.2 32.4 23.96 53.24 66.24 38.2 66.35 24.98 37.54"/><path d="M25.71,12.6,31.5,24.4l1,2.09L51.64,65.25l-12.8.1-13-28.23L20.1,25.76,25.71,12.6m-.13-4.8-1.71,4L18.26,25l-.36.86.42.84L24.09,38,37,66.18l.53,1.18h1.3l12.8-.1,3.19,0-1.41-2.86L34.32,25.6l-1-2.08L27.5,11.72,25.58,7.8Z"/><polygon class="cls-2" points="30.19 2.11 35.54 2.07 8.6 65.58 3.04 65.62 30.19 2.11"/></g></g></svg>