<svg xmlns="http://www.w3.org/2000/svg" viewBox="0 0 106.82 106.82"><defs><style>.cls-1{fill:#fff;}.cls-2{fill:none;stroke:#000;stroke-miterlimit:10;stroke-width:4px;}.cls-3{fill:#f97878;}.cls-4{fill:#ffcaca;}</style></defs><g id="Layer_2" data-name="Layer 2"><g id="Layer_1-2" data-name="Layer 1"><rect class="cls-1" width="106.82" height="106.82"/><polygon class="cls-2" points="51.34 60.78 33.09 100.11 43.42 100.34 56.79 72.31 68.89 100.91 81.68 101.2 63.74 61.88 62.77 59.77 73.28 37.69 62.13 37.44 57.34 47.79 38.31 5.91 25.14 5.62 51.34 60.78"/><polygon class="cls-3" points="33.09 100.11 51.34 60.78 56.79 72.31 43.42 100.34 33.09 100.11"/><polygon class="cls-3" points="57.34 47.79 62.13 37.44 73.28 37.69 62.77 59.77 57.34 47.79"/><polygon class="cls-3" points="25.14 5.62 38.31 5.91 57.34 47.79 51.34 60.78 25.14 5.62"/><polygon class="cls-4" points="68.22 101.9 55.87 72.7 50.24 60.78 57.35 45.39 63.68 59.35 83.25 102.24 68.22 101.9"/><path d="M57.34,47.79l5.43,12,1,2.11L81.68,101.2l-12.8-.29L56.79,72.31,51.34,60.78l6-13m0-4.8-1.83,4-6,13-.4.85.4.84L55,73.13,67,101.69l.51,1.19,1.29,0,12.8.29,3.19.07-1.33-2.9L65.56,61.05l-1-2.11L59.16,47l-1.81-4Z"/><polygon class="cls-3" points="62.13 37.44 67.49 37.56 38.64 100.23 33.09 100.11 62.13 37.44"/></g></g></svg>