<?xml version="1.0" encoding="utf-8"?>
<!-- Generator: Adobe Illustrator 26.0.2, SVG Export Plug-In . SVG Version: 6.00 Build 0)  -->
<svg version="1.1" id="Layer_1" xmlns="http://www.w3.org/2000/svg" xmlns:xlink="http://www.w3.org/1999/xlink" x="0px" y="0px"
	 viewBox="0 0 445 258.5" style="enable-background:new 0 0 445 258.5;" xml:space="preserve">
<style type="text/css">
	.st0{fill:#1D1D1B;}
	.st1{enable-background:new    ;}
</style>
<path class="st0" d="M90.2,49.3c-1.1,2.1-1.6,4.4-1.6,6.7v18.9c0.1,1.2-0.7,2.3-1.9,2.4c-0.2,0-0.3,0-0.5,0H86
	c-1.2,0.1-2.3-0.7-2.4-1.9c0-0.2,0-0.3,0-0.5V56c0-2.3-0.5-4.6-1.6-6.7L70.2,30.2c-1.1-1.7,0.1-2.9,2.1-2.9c1.3,0,2.2,1,2.9,2.2
	l8.2,12.9c0.9,1.4,1.7,2.2,2.7,2.2s1.8-0.8,2.7-2.2l8.1-12.9c0.8-1.2,1.6-2.2,2.9-2.2c2,0,3.1,1.2,2.1,2.9L90.2,49.3z"/>
<path class="st0" d="M148,77.8h-0.3c-1.2,0.1-2.3-0.7-2.4-1.9c0-0.2,0-0.3,0-0.5V59.6c0-3-1.7-4.8-4.8-4.8h-12.8
	c-3,0-4.8,1.7-4.8,4.8v15.8c0.1,1.2-0.7,2.3-1.9,2.4c-0.2,0-0.3,0-0.5,0h-0.3c-1.2,0.1-2.3-0.7-2.4-1.9c0-0.2,0-0.3,0-0.5V43.7
	c0-9,6.5-17,16.2-17s16.2,8,16.2,17v31.7c0.1,1.2-0.7,2.3-1.9,2.4C148.3,77.8,148.1,77.8,148,77.8z M145.3,43.7
	c0-6.2-4.1-12.2-11.2-12.2S123,37.5,123,43.7V46c0,3,1.7,4.8,4.8,4.8h12.8c3,0,4.8-1.7,4.8-4.8L145.3,43.7z"/>
<path class="st0" d="M298.6,77c-1.1,0.1-2.2-0.7-2.3-1.9c0-0.2,0-0.3,0-0.5V46c0-2.8-2.4-3.7-3.7-0.7l-6,14.2
	c-0.5,1.3-1.2,2.2-2.1,2.2s-1.5-0.9-2.1-2.2l-5.9-14.2c-1.3-3-3.7-2.2-3.7,0.7v28.6c0.1,1.3-0.9,2.3-2.1,2.4
	c-1.3,0.1-2.3-0.9-2.4-2.1c0-0.1,0-0.2,0-0.3V29.4c-0.1-1.2,0.8-2.3,1.9-2.4c0.1,0,0.3,0,0.4,0h1.4c1.4,0.1,2.7,1,3.1,2.4l6.9,17.4
	c0.4,1.1,1.3,2.2,2.4,2.2s2-1.1,2.4-2.2l6.9-17.4c0.5-1.4,1.7-2.3,3.1-2.4h1.4c1.2-0.1,2.3,0.7,2.4,1.9c0,0.2,0,0.3,0,0.5v45.3
	c0.1,1.2-0.7,2.2-1.8,2.4C298.9,77,298.7,77,298.6,77z"/>
<path class="st0" d="M396.1,77h-1.4c-1.5,0-2.5-1.1-3.1-2.4l-17.3-33.2c-1.4-2.7-3.7-2.3-3.7,0.7v32.6c0.1,1.3-0.9,2.3-2.1,2.4
	c-1.3,0.1-2.3-0.9-2.4-2.1c0-0.1,0-0.2,0-0.3V29.4c-0.1-1.2,0.7-2.2,1.9-2.4c0.2,0,0.3,0,0.5,0h1.5c1.5,0,2.5,1.1,3.1,2.4l17.2,32.8
	c1.4,2.7,3.7,2.3,3.7-0.7V29.4c0-1.3,1-2.3,2.3-2.3c1.3,0,2.3,1,2.3,2.3v45.3c0.1,1.2-0.8,2.3-2,2.4C396.3,77,396.2,77,396.1,77z"/>
<path class="st0" d="M429.8,78.1c-9.8,0-16.2-8-16.2-17V42.9c0-9,6.5-17,16.2-17c5.7-0.2,11,2.9,13.8,7.9c0.7,1.1,0.3,2.6-0.8,3.4
	c-1.1,0.8-2.5,0.5-3.3-0.5c0,0-0.1-0.1-0.1-0.1c-1.6-2.5-4.2-5.9-9.6-5.9c-7,0-11.1,6.1-11.1,12.2v2.3c0,3,1.7,4.8,4.8,4.8h10.2
	c1.5,0,2.4,0.9,2.4,2.1s-0.9,2-2.4,2h-10.2c-3,0-4.8,1.7-4.8,4.8v2.3c0,6.2,4.1,12.2,11.1,12.2c5.4,0,8.1-3.3,9.9-5.8
	c0.7-1.1,2.1-1.5,3.2-0.8c0,0,0.1,0,0.1,0.1c1.1,0.8,1.4,2.2,0.8,3.3C441,75.2,435.6,78.3,429.8,78.1z"/>
<path class="st0" d="M67.4,135.1h-6.5c-3,0-4.8,1.7-4.8,4.8v38.8c0.1,1.2-0.7,2.3-1.9,2.4c-0.2,0-0.3,0-0.5,0h-0.3
	c-1.2,0.1-2.3-0.7-2.4-1.9c0-0.2,0-0.3,0-0.5v-38.8c0-3-1.7-4.8-4.8-4.8h-6.6c-1.1,0.2-2.2-0.6-2.3-1.8c-0.2-1.1,0.6-2.2,1.8-2.3
	c0.2,0,0.4,0,0.6,0h27.7c1.1-0.2,2.2,0.6,2.3,1.8s-0.6,2.2-1.8,2.3C67.8,135.1,67.6,135.1,67.4,135.1L67.4,135.1z"/>
<path class="st0" d="M248.9,181h-0.3c-1.2,0.1-2.3-0.7-2.4-1.9c0-0.2,0-0.3,0-0.5v-15.8c0-3-1.7-4.8-4.8-4.8h-12.8
	c-3,0-4.8,1.7-4.8,4.8v15.8c0.1,1.2-0.7,2.3-1.9,2.4c-0.2,0-0.3,0-0.5,0h-0.3c-1.2,0.1-2.3-0.7-2.4-1.9c0-0.2,0-0.3,0-0.5v-31.7
	c0-9,6.5-17,16.2-17s16.2,8,16.2,17v31.7c0.1,1.2-0.7,2.3-1.9,2.4C249.2,181,249.1,181,248.9,181z M246.2,146.9
	c0-6.2-4.1-12.2-11.2-12.2s-11.1,6.1-11.1,12.2v2.3c0,3,1.7,4.8,4.8,4.8h12.8c3,0,4.8-1.7,4.8-4.8V146.9z"/>
<path class="st0" d="M282.4,182.1c-9.7,0-16.2-8-16.2-17v-18.2c0-9,6.5-17,16.2-17s16.2,8,16.2,17v18.2
	C298.7,174.1,292.2,182.1,282.4,182.1z M293.6,146.9c0-6.2-4.1-12.2-11.2-12.2s-11.1,6.1-11.1,12.2v18.2c0,6.2,4.1,12.2,11.1,12.2
	s11.2-6.1,11.2-12.2V146.9z"/>
<path class="st0" d="M330.7,182.1c-9.8,0-16.2-8-16.2-17v-31.7c-0.1-1.2,0.7-2.3,1.9-2.4c0.2,0,0.3,0,0.5,0h0.3
	c1.2-0.1,2.3,0.7,2.4,1.9c0,0.2,0,0.3,0,0.5v31.7c0,6.2,4.1,12.2,11.1,12.2s11.2-6.1,11.2-12.2v-31.7c-0.1-1.2,0.7-2.3,1.9-2.4
	c0.2,0,0.3,0,0.5,0h0.3c1.2-0.1,2.3,0.7,2.4,1.9c0,0.2,0,0.3,0,0.5v31.7C347,174.1,340.5,182.1,330.7,182.1z"/>
<path class="st0" d="M101.6,131L101.6,131c1.4,0,2.5,1.1,2.5,2.4v45.1c0,1.4-1.1,2.4-2.4,2.4h0c-1.4,0-2.4-1.1-2.4-2.4v-45.1
	C99.2,132.1,100.3,131,101.6,131z"/>
<path class="st0" d="M379.3,131L379.3,131c1.4,0,2.4,1.1,2.4,2.4v45.1c0,1.4-1.1,2.4-2.5,2.4h0c-1.4,0-2.5-1.1-2.5-2.4v-45.1
	C376.8,132.1,377.9,131,379.3,131z"/>
<path class="st0" d="M333.5,27L333.5,27c1.4,0,2.4,1.1,2.4,2.5v45.1c0,1.4-1.1,2.4-2.5,2.4h0c-1.4,0-2.5-1.1-2.5-2.4V29.4
	C331,28.1,332.1,27,333.5,27z"/>
<path class="st0" d="M180.2,151.8c-1.2,0-2.2-1.1-2.2-2.3c0-1.1,0.8-2,1.8-2.2c20.2-4,26.3-37.5,32.1-70c6.4-35.5,13-72.2,38.4-77.7
	c1.2-0.2,2.4,0.5,2.6,1.7c0.3,1.2-0.5,2.4-1.7,2.7c-22.4,4.8-28.7,40.1-34.9,74.1c-6.4,35.5-12.5,69-35.7,73.6
	C180.5,151.8,180.4,151.8,180.2,151.8z"/>
<path class="st0" d="M117.9,210.7c-1.2,0-2.2-1.1-2.2-2.3c0-1.1,0.8-2,1.8-2.2c20.2-4,26.3-37.5,32.1-70
	C156,100.8,162.7,64,188,58.6c1.2-0.3,2.4,0.5,2.7,1.7c0.3,1.2-0.5,2.4-1.7,2.7c-22.4,4.8-28.8,40-34.9,74.1
	c-6.4,35.5-12.5,69-35.7,73.6C118.2,210.7,118,210.7,117.9,210.7z"/>
<g class="st1">
	<path class="st0" d="M14.9,247.3c-0.2,0.3-0.5,0.6-0.9,1c-0.3,0.3-0.8,0.6-1.2,0.9c-0.5,0.3-1,0.5-1.7,0.6C10.5,250,9.8,250,9,250
		c-0.9,0-1.9-0.2-2.7-0.5S4.7,248.7,4,248s-1.2-1.5-1.6-2.5c-0.4-1-0.6-2.2-0.6-3.5c0-1.3,0.2-2.5,0.7-3.7c0.5-1.2,1.1-2.2,2-3.1
		c0.8-0.9,1.8-1.6,3-2.1c1.1-0.5,2.3-0.8,3.6-0.8c0.9,0,1.6,0.1,2.2,0.3c0.6,0.2,1.1,0.5,1.6,0.8v-8.3c0.4-0.2,0.8-0.3,1.2-0.4
		s0.9-0.1,1.3-0.1v24.7c-0.3,0.2-0.7,0.3-1.2,0.4c-0.5,0.1-0.9,0.1-1.4,0.1V247.3z M10.2,248.2c1.2,0,2.2-0.3,3-0.9
		c0.8-0.6,1.4-1.2,1.7-2v-8.7c-0.2-0.3-0.4-0.7-0.7-1c-0.3-0.3-0.6-0.6-1-0.9c-0.4-0.3-0.8-0.5-1.3-0.6c-0.5-0.2-1.1-0.2-1.7-0.2
		c-0.7,0-1.4,0.1-2.1,0.4s-1.3,0.7-1.9,1.3c-0.5,0.6-1,1.3-1.3,2.2c-0.3,0.9-0.5,1.9-0.5,3.1c0,1.4,0.2,2.5,0.5,3.4s0.8,1.7,1.4,2.3
		c0.5,0.6,1.2,1,1.9,1.3C8.9,248.1,9.6,248.2,10.2,248.2z"/>
	<path class="st0" d="M24.8,241.2c0.1,1.2,0.3,2.2,0.6,3s0.8,1.6,1.4,2.2c0.6,0.6,1.2,1,2,1.3s1.5,0.4,2.4,0.4c1.1,0,2-0.1,2.7-0.4
		c0.8-0.3,1.5-0.7,2.1-1.3c0.3,0.1,0.5,0.3,0.6,0.6c-0.2,0.2-0.4,0.5-0.7,0.9s-0.8,0.7-1.3,1c-0.5,0.3-1.2,0.6-2,0.8
		c-0.8,0.2-1.7,0.3-2.7,0.3c-1.1,0-2.1-0.2-3-0.6c-0.9-0.4-1.7-0.9-2.4-1.7s-1.2-1.6-1.6-2.7c-0.4-1.1-0.6-2.3-0.6-3.6
		c0-1.2,0.2-2.4,0.6-3.5c0.4-1.1,1-2.1,1.8-2.9s1.6-1.5,2.6-2s2.1-0.7,3.2-0.7c1.2,0,2.2,0.2,3,0.6c0.8,0.4,1.4,0.9,1.9,1.6
		c0.5,0.6,0.8,1.4,1,2.1c0.2,0.8,0.3,1.5,0.3,2.3c-0.2,0.3-0.4,0.5-0.7,0.7c-0.3,0.2-0.6,0.3-1,0.5L24.8,241.2z M29.7,233.8
		c-0.7,0-1.3,0.1-1.9,0.4c-0.6,0.2-1.1,0.6-1.5,1.1c-0.4,0.5-0.8,1.1-1,1.9s-0.4,1.7-0.4,2.8l9.1-0.9c0-0.1,0-0.2,0-0.3
		c0-0.1,0-0.2,0-0.3c0-0.7-0.1-1.3-0.3-1.8c-0.2-0.6-0.4-1-0.8-1.5c-0.4-0.4-0.8-0.7-1.3-1C31,233.9,30.4,233.8,29.7,233.8z"/>
	<path class="st0" d="M40,246.1c0.2-0.3,0.5-0.6,0.9-0.8c0.4-0.3,0.8-0.4,1.3-0.5c0.2,1.1,0.7,2,1.6,2.7c0.9,0.7,2.1,1.1,3.5,1.1
		c1.4,0,2.4-0.3,3-0.9c0.7-0.6,1-1.3,1-2.2c0-0.9-0.3-1.6-0.9-2.1s-1.7-0.9-3.1-1.3l-1.9-0.5c-0.7-0.2-1.3-0.4-1.9-0.6
		c-0.5-0.2-1-0.5-1.4-0.8c-0.4-0.3-0.7-0.7-0.9-1.1c-0.2-0.4-0.3-1-0.3-1.6c0-0.7,0.2-1.3,0.5-2c0.3-0.6,0.8-1.2,1.4-1.7
		s1.3-0.9,2.1-1.2c0.8-0.3,1.7-0.4,2.6-0.4c1,0,1.8,0.1,2.5,0.3c0.7,0.2,1.2,0.5,1.7,0.8c0.4,0.3,0.8,0.7,1,1.1
		c0.2,0.4,0.3,0.7,0.3,1c-0.2,0.3-0.4,0.6-0.8,0.8c-0.4,0.2-0.8,0.4-1.2,0.4c-0.2-0.8-0.6-1.5-1.3-2.1c-0.7-0.6-1.7-0.9-3.1-0.9
		c-0.5,0-0.9,0.1-1.3,0.2c-0.4,0.1-0.8,0.3-1.2,0.5c-0.3,0.2-0.6,0.5-0.8,0.9c-0.2,0.3-0.3,0.7-0.3,1.2c0,0.7,0.3,1.3,0.8,1.8
		c0.5,0.4,1.4,0.8,2.7,1.1l2,0.5c1.9,0.5,3.2,1.1,4,1.8c0.8,0.7,1.2,1.6,1.2,2.8c0,0.7-0.2,1.4-0.5,2.1c-0.3,0.7-0.8,1.3-1.4,1.8
		c-0.6,0.5-1.4,0.9-2.3,1.3c-0.9,0.3-1.9,0.5-3.1,0.5c-1,0-1.9-0.1-2.6-0.4s-1.4-0.6-1.9-1c-0.5-0.4-0.9-0.8-1.2-1.3
		C40.2,247,40.1,246.6,40,246.1z"/>
	<path class="st0" d="M61.6,227.6c-0.2,0.3-0.5,0.7-0.9,1.1s-0.8,0.6-1.1,0.8c-0.3-0.1-0.7-0.4-1.1-0.8s-0.7-0.7-0.9-1.1
		c0.2-0.4,0.5-0.7,0.9-1.1c0.4-0.4,0.8-0.7,1.1-0.8c0.3,0.2,0.7,0.5,1.1,0.8C61.1,226.9,61.4,227.3,61.6,227.6z M58.2,233.2
		c0.4-0.2,0.8-0.3,1.2-0.4c0.4-0.1,0.9-0.1,1.3-0.1v16.6c-0.3,0.2-0.7,0.3-1.2,0.4c-0.5,0.1-0.9,0.1-1.4,0.1V233.2z"/>
</g>
<g class="st1">
	<path class="st0" d="M72.1,244.1c-0.3,0-0.6,0-0.9,0c-0.3,0-0.6-0.1-0.9-0.1c-0.6,0.2-1,0.5-1.4,0.8c-0.3,0.3-0.5,0.7-0.5,1.1
		c0,0.6,0.3,1.1,1,1.3c0.6,0.2,1.6,0.4,2.8,0.5l3.4,0.2c1,0,1.9,0.2,2.6,0.5c0.7,0.3,1.3,0.6,1.7,1c0.4,0.4,0.7,0.9,0.9,1.4
		c0.2,0.5,0.3,1,0.3,1.5c0,0.9-0.2,1.7-0.7,2.4s-1.1,1.4-1.9,1.9c-0.8,0.5-1.8,0.9-2.9,1.2c-1.1,0.3-2.3,0.4-3.7,0.4
		c-1,0-1.9-0.1-2.8-0.3c-0.8-0.2-1.6-0.4-2.2-0.8c-0.6-0.4-1.1-0.8-1.4-1.3c-0.3-0.5-0.5-1.1-0.5-1.8c0-0.5,0.1-1,0.3-1.4
		s0.5-0.8,0.8-1.1c0.3-0.3,0.7-0.6,1.1-0.8c0.4-0.2,0.8-0.4,1.2-0.5c0.1,0,0.2,0.1,0.3,0.3c0.1,0.1,0.1,0.2,0.1,0.4
		c-0.4,0.2-0.7,0.5-1,0.9c-0.3,0.4-0.4,0.9-0.4,1.5c0,0.6,0.1,1,0.4,1.5c0.3,0.4,0.7,0.8,1.2,1c0.5,0.3,1.1,0.5,1.9,0.6
		c0.7,0.1,1.5,0.2,2.4,0.2c1.8,0,3.2-0.3,4.1-1c0.9-0.6,1.4-1.5,1.4-2.4c0-1-0.3-1.8-1-2.4c-0.7-0.6-1.9-1-3.6-1.1l-3.4-0.2
		c-1.6-0.1-2.8-0.4-3.5-0.8c-0.8-0.4-1.1-1.1-1.1-2c0-0.4,0.1-0.8,0.2-1.1c0.2-0.3,0.4-0.7,0.6-0.9c0.3-0.3,0.6-0.5,0.9-0.8
		c0.3-0.2,0.7-0.4,1-0.6c-0.9-0.4-1.7-1-2.2-1.8c-0.5-0.8-0.8-1.8-0.8-3c0-0.9,0.2-1.7,0.6-2.5c0.4-0.8,0.9-1.4,1.6-2
		c0.7-0.6,1.4-1,2.3-1.4c0.9-0.3,1.9-0.5,2.9-0.5c0.4,0,0.7,0,1,0.1c0.3,0,0.6,0.1,0.9,0.2c0.1,0,0.2,0,0.3,0c0.1,0,0.3,0,0.4,0
		c0.9,0,1.6-0.2,2-0.5c0.4-0.3,0.5-0.7,0.5-1.2c0-0.3-0.1-0.5-0.2-0.7c-0.1-0.2-0.2-0.4-0.4-0.5c0.7-0.6,1.5-0.9,2.4-0.9
		c0.2,0.2,0.4,0.4,0.5,0.7c0.1,0.3,0.2,0.6,0.2,1c0,0.9-0.4,1.6-1.1,2.1c-0.7,0.5-1.7,0.7-2.8,0.8c0.8,0.5,1.4,1.2,1.8,2
		c0.4,0.8,0.5,1.6,0.5,2.5c0,0.9-0.2,1.8-0.6,2.6c-0.4,0.8-0.9,1.4-1.6,2c-0.7,0.5-1.4,1-2.3,1.3C74.1,243.9,73.1,244.1,72.1,244.1z
		 M72.5,233.7c-0.5,0-1,0.1-1.5,0.3c-0.5,0.2-0.9,0.5-1.2,0.8c-0.4,0.4-0.6,0.8-0.8,1.3c-0.2,0.5-0.3,1.1-0.3,1.8
		c0,0.8,0.1,1.5,0.3,2.1c0.2,0.6,0.5,1.1,0.9,1.5c0.4,0.4,0.8,0.7,1.3,1c0.5,0.2,1.1,0.3,1.6,0.3c0.5,0,1-0.1,1.5-0.2
		c0.5-0.1,0.9-0.4,1.2-0.7c0.4-0.3,0.6-0.7,0.8-1.3c0.2-0.5,0.3-1.1,0.3-1.9c0-0.7-0.1-1.3-0.3-1.9c-0.2-0.6-0.5-1.1-0.8-1.6
		c-0.4-0.5-0.8-0.8-1.3-1.1C73.8,233.8,73.2,233.7,72.5,233.7z"/>
</g>
<g class="st1">
	<path class="st0" d="M96.9,239.5c0-1.8-0.4-3.2-1.1-4c-0.8-0.8-1.8-1.3-3.2-1.3c-0.5,0-1,0.1-1.5,0.3c-0.5,0.2-0.9,0.4-1.4,0.7
		c-0.4,0.3-0.9,0.7-1.2,1c-0.4,0.4-0.7,0.8-1,1.2v11.8c-0.3,0.2-0.7,0.3-1.2,0.4c-0.5,0.1-0.9,0.1-1.4,0.1v-16.5
		c0.7-0.4,1.5-0.5,2.4-0.5v3.2c0.3-0.4,0.6-0.8,1.1-1.2c0.4-0.4,0.9-0.8,1.5-1.1c0.5-0.3,1.2-0.6,1.8-0.9c0.7-0.2,1.4-0.3,2.1-0.3
		c1.7,0,3.1,0.5,4.1,1.6c1,1.1,1.5,2.6,1.5,4.5v10.8c-0.3,0.2-0.7,0.3-1.2,0.4c-0.5,0.1-0.9,0.1-1.4,0.1V239.5z"/>
	<path class="st0" d="M106.8,241.2c0.1,1.2,0.3,2.2,0.6,3s0.8,1.6,1.4,2.2c0.6,0.6,1.2,1,2,1.3s1.5,0.4,2.4,0.4c1.1,0,2-0.1,2.7-0.4
		c0.8-0.3,1.5-0.7,2.1-1.3c0.3,0.1,0.5,0.3,0.6,0.6c-0.2,0.2-0.4,0.5-0.7,0.9s-0.8,0.7-1.3,1c-0.5,0.3-1.2,0.6-2,0.8
		c-0.8,0.2-1.7,0.3-2.7,0.3c-1.1,0-2.1-0.2-3-0.6c-0.9-0.4-1.7-0.9-2.4-1.7s-1.2-1.6-1.6-2.7c-0.4-1.1-0.6-2.3-0.6-3.6
		c0-1.2,0.2-2.4,0.6-3.5c0.4-1.1,1-2.1,1.8-2.9s1.6-1.5,2.6-2s2.1-0.7,3.2-0.7c1.2,0,2.2,0.2,3,0.6c0.8,0.4,1.4,0.9,1.9,1.6
		c0.5,0.6,0.8,1.4,1,2.1c0.2,0.8,0.3,1.5,0.3,2.3c-0.2,0.3-0.4,0.5-0.7,0.7c-0.3,0.2-0.6,0.3-1,0.5L106.8,241.2z M111.6,233.8
		c-0.7,0-1.3,0.1-1.9,0.4c-0.6,0.2-1.1,0.6-1.5,1.1c-0.4,0.5-0.8,1.1-1,1.9s-0.4,1.7-0.4,2.8l9.1-0.9c0-0.1,0-0.2,0-0.3
		c0-0.1,0-0.2,0-0.3c0-0.7-0.1-1.3-0.3-1.8c-0.2-0.6-0.4-1-0.8-1.5c-0.4-0.4-0.8-0.7-1.3-1C112.9,233.9,112.3,233.8,111.6,233.8z"/>
	<path class="st0" d="M123.3,233.2c0.7-0.4,1.5-0.5,2.4-0.5v4.6c0.2-0.6,0.5-1.3,0.9-1.9s0.8-1.1,1.3-1.6c0.5-0.5,1.1-0.8,1.7-1.1
		c0.6-0.3,1.3-0.4,2.1-0.4c0.6,0,1.1,0.1,1.5,0.3c0.4,0.2,0.8,0.4,1.1,0.7c0.3,0.3,0.5,0.6,0.6,0.9c0.1,0.3,0.2,0.7,0.2,1
		c-0.2,0.3-0.5,0.6-0.9,0.8c-0.4,0.2-0.8,0.3-1.2,0.4c-0.1-0.6-0.3-1.1-0.7-1.5c-0.4-0.5-1-0.7-1.8-0.7c-0.6,0-1.2,0.2-1.7,0.5
		c-0.5,0.4-1,0.9-1.4,1.5c-0.4,0.7-0.7,1.4-1,2.3c-0.2,0.9-0.4,1.9-0.5,3v7.6c-0.3,0.2-0.7,0.3-1.2,0.4c-0.5,0.1-0.9,0.1-1.4,0.1
		V233.2z"/>
</g>
<g class="st1">
	<path class="st0" d="M152.6,244.1c-0.3,0-0.6,0-0.9,0c-0.3,0-0.6-0.1-0.9-0.1c-0.6,0.2-1,0.5-1.4,0.8c-0.3,0.3-0.5,0.7-0.5,1.1
		c0,0.6,0.3,1.1,1,1.3c0.6,0.2,1.6,0.4,2.8,0.5l3.4,0.2c1,0,1.9,0.2,2.6,0.5c0.7,0.3,1.3,0.6,1.7,1c0.4,0.4,0.7,0.9,0.9,1.4
		c0.2,0.5,0.3,1,0.3,1.5c0,0.9-0.2,1.7-0.7,2.4s-1.1,1.4-1.9,1.9c-0.8,0.5-1.8,0.9-2.9,1.2c-1.1,0.3-2.3,0.4-3.7,0.4
		c-1,0-1.9-0.1-2.8-0.3c-0.8-0.2-1.6-0.4-2.2-0.8c-0.6-0.4-1.1-0.8-1.4-1.3c-0.3-0.5-0.5-1.1-0.5-1.8c0-0.5,0.1-1,0.3-1.4
		s0.5-0.8,0.8-1.1c0.3-0.3,0.7-0.6,1.1-0.8c0.4-0.2,0.8-0.4,1.2-0.5c0.1,0,0.2,0.1,0.3,0.3c0.1,0.1,0.1,0.2,0.1,0.4
		c-0.4,0.2-0.7,0.5-1,0.9c-0.3,0.4-0.4,0.9-0.4,1.5c0,0.6,0.1,1,0.4,1.5c0.3,0.4,0.7,0.8,1.2,1c0.5,0.3,1.1,0.5,1.9,0.6
		c0.7,0.1,1.5,0.2,2.4,0.2c1.8,0,3.2-0.3,4.1-1c0.9-0.6,1.4-1.5,1.4-2.4c0-1-0.3-1.8-1-2.4c-0.7-0.6-1.9-1-3.6-1.1l-3.4-0.2
		c-1.6-0.1-2.8-0.4-3.5-0.8c-0.8-0.4-1.1-1.1-1.1-2c0-0.4,0.1-0.8,0.2-1.1c0.2-0.3,0.4-0.7,0.6-0.9c0.3-0.3,0.6-0.5,0.9-0.8
		c0.3-0.2,0.7-0.4,1-0.6c-0.9-0.4-1.7-1-2.2-1.8c-0.5-0.8-0.8-1.8-0.8-3c0-0.9,0.2-1.7,0.6-2.5c0.4-0.8,0.9-1.4,1.6-2
		c0.7-0.6,1.4-1,2.3-1.4c0.9-0.3,1.9-0.5,2.9-0.5c0.4,0,0.7,0,1,0.1c0.3,0,0.6,0.1,0.9,0.2c0.1,0,0.2,0,0.3,0c0.1,0,0.3,0,0.4,0
		c0.9,0,1.6-0.2,2-0.5c0.4-0.3,0.5-0.7,0.5-1.2c0-0.3-0.1-0.5-0.2-0.7c-0.1-0.2-0.2-0.4-0.4-0.5c0.7-0.6,1.5-0.9,2.4-0.9
		c0.2,0.2,0.4,0.4,0.5,0.7c0.1,0.3,0.2,0.6,0.2,1c0,0.9-0.4,1.6-1.1,2.1c-0.7,0.5-1.7,0.7-2.8,0.8c0.8,0.5,1.4,1.2,1.8,2
		c0.4,0.8,0.5,1.6,0.5,2.5c0,0.9-0.2,1.8-0.6,2.6c-0.4,0.8-0.9,1.4-1.6,2c-0.7,0.5-1.4,1-2.3,1.3
		C154.6,243.9,153.6,244.1,152.6,244.1z M153,233.7c-0.5,0-1,0.1-1.5,0.3c-0.5,0.2-0.9,0.5-1.2,0.8c-0.4,0.4-0.6,0.8-0.8,1.3
		c-0.2,0.5-0.3,1.1-0.3,1.8c0,0.8,0.1,1.5,0.3,2.1c0.2,0.6,0.5,1.1,0.9,1.5c0.4,0.4,0.8,0.7,1.3,1c0.5,0.2,1.1,0.3,1.6,0.3
		c0.5,0,1-0.1,1.5-0.2c0.5-0.1,0.9-0.4,1.2-0.7c0.4-0.3,0.6-0.7,0.8-1.3c0.2-0.5,0.3-1.1,0.3-1.9c0-0.7-0.1-1.3-0.3-1.9
		c-0.2-0.6-0.5-1.1-0.8-1.6c-0.4-0.5-0.8-0.8-1.3-1.1C154.3,233.8,153.7,233.7,153,233.7z"/>
</g>
<g class="st1">
	<path class="st0" d="M165.4,233.2c0.7-0.4,1.5-0.5,2.4-0.5v4.6c0.2-0.6,0.5-1.3,0.9-1.9s0.8-1.1,1.3-1.6c0.5-0.5,1.1-0.8,1.7-1.1
		c0.6-0.3,1.3-0.4,2.1-0.4c0.6,0,1.1,0.1,1.5,0.3c0.4,0.2,0.8,0.4,1.1,0.7c0.3,0.3,0.5,0.6,0.6,0.9c0.1,0.3,0.2,0.7,0.2,1
		c-0.2,0.3-0.5,0.6-0.9,0.8c-0.4,0.2-0.8,0.3-1.2,0.4c-0.1-0.6-0.3-1.1-0.7-1.5c-0.4-0.5-1-0.7-1.8-0.7c-0.6,0-1.2,0.2-1.7,0.5
		c-0.5,0.4-1,0.9-1.4,1.5c-0.4,0.7-0.7,1.4-1,2.3c-0.2,0.9-0.4,1.9-0.5,3v7.6c-0.3,0.2-0.7,0.3-1.2,0.4c-0.5,0.1-0.9,0.1-1.4,0.1
		V233.2z"/>
</g>
<g class="st1">
	<path class="st0" d="M194.6,248.3c-0.1,0.1-0.2,0.2-0.3,0.4c-0.1,0.2-0.3,0.3-0.5,0.4c-0.2,0.1-0.4,0.3-0.6,0.4
		c-0.2,0.1-0.4,0.2-0.6,0.2c-0.7,0-1.3-0.3-1.7-0.8c-0.5-0.5-0.7-1.1-0.8-1.9c-0.2,0.3-0.4,0.7-0.8,1c-0.3,0.4-0.8,0.7-1.2,1
		c-0.5,0.3-1,0.5-1.7,0.7c-0.6,0.2-1.3,0.3-2,0.3c-1.5,0-2.7-0.4-3.6-1.2s-1.3-1.8-1.3-3.1c0-1.3,0.5-2.5,1.5-3.4
		c1-0.9,2.7-1.6,5.2-2l3.8-0.7v-1.3c0-1.5-0.4-2.7-1.1-3.5c-0.7-0.8-1.8-1.2-3.2-1.2c-0.9,0-1.6,0.2-2.2,0.7c-0.6,0.4-0.9,1.1-0.9,2
		c0,0.4,0.1,0.7,0.4,1c-0.2,0.3-0.5,0.5-0.9,0.7c-0.4,0.2-0.9,0.3-1.3,0.4c-0.1-0.1-0.2-0.3-0.4-0.5c-0.2-0.2-0.2-0.5-0.2-0.9
		c0-0.7,0.2-1.3,0.6-1.9s0.9-1.1,1.5-1.5c0.6-0.4,1.3-0.7,2.2-1c0.8-0.2,1.7-0.4,2.5-0.4c2.1,0,3.5,0.5,4.4,1.4
		c0.9,0.9,1.3,2.2,1.3,3.9v8.1c0,0.9,0.2,1.5,0.6,1.8c0.4,0.3,0.8,0.5,1.4,0.6L194.6,248.3z M185.5,248.3c1.1,0,2.1-0.3,2.9-0.8
		c0.8-0.5,1.4-1.2,1.7-2v-4.6l-4.3,0.8c-1.2,0.2-2,0.6-2.7,1.1c-0.6,0.5-0.9,1.3-0.9,2.2c0,1.1,0.3,1.9,1,2.5
		C183.8,248,184.6,248.3,185.5,248.3z"/>
	<path class="st0" d="M198.7,233.2c0.4-0.2,0.8-0.3,1.2-0.4c0.4-0.1,0.9-0.1,1.3-0.1v2.9c0.3-0.4,0.7-0.7,1.1-1.1
		c0.4-0.4,0.9-0.7,1.5-1c0.5-0.3,1.1-0.6,1.8-0.8c0.6-0.2,1.3-0.3,2.1-0.3c1.1,0,2.1,0.2,3,0.6c0.9,0.4,1.6,0.9,2.2,1.6
		s1,1.5,1.3,2.4c0.3,0.9,0.5,1.9,0.5,3c0,1.4-0.2,2.7-0.7,4c-0.5,1.2-1.2,2.3-2,3.2c-0.9,0.9-1.9,1.6-3.1,2.2
		c-1.2,0.5-2.5,0.8-3.9,0.8c-0.8,0-1.4-0.1-2-0.2c-0.6-0.2-1.1-0.4-1.5-0.6v8.1c-0.3,0.2-0.7,0.3-1.2,0.4c-0.5,0.1-0.9,0.1-1.4,0.1
		V233.2z M206.4,234.2c-1,0-2,0.3-2.9,0.9c-0.9,0.6-1.7,1.4-2.2,2.3v8.8c0.6,0.8,1.3,1.4,2.1,1.8c0.8,0.4,1.8,0.6,2.7,0.6
		c0.8,0,1.6-0.2,2.3-0.5c0.7-0.3,1.3-0.8,1.8-1.4c0.5-0.6,0.9-1.4,1.2-2.3s0.5-2,0.5-3.3c0-2.3-0.5-4-1.4-5.2
		C209.5,234.8,208.1,234.2,206.4,234.2z"/>
	<path class="st0" d="M231.4,239.5c0-1.8-0.4-3.2-1.1-4c-0.8-0.8-1.8-1.3-3.2-1.3c-0.5,0-1,0.1-1.5,0.3s-1,0.4-1.4,0.7
		c-0.4,0.3-0.9,0.7-1.2,1.1c-0.4,0.4-0.7,0.8-1,1.3v11.7c-0.3,0.2-0.7,0.3-1.2,0.4c-0.5,0.1-0.9,0.1-1.4,0.1v-24.6
		c0.4-0.2,0.8-0.3,1.2-0.4c0.4-0.1,0.9-0.1,1.3-0.1v11c0.3-0.4,0.7-0.7,1.1-1.1c0.4-0.4,0.9-0.7,1.5-1.1c0.5-0.3,1.1-0.6,1.8-0.8
		c0.6-0.2,1.3-0.3,2-0.3c1.7,0,3.1,0.5,4.1,1.6c1,1.1,1.5,2.6,1.5,4.5v10.8c-0.3,0.2-0.7,0.3-1.2,0.4c-0.5,0.1-0.9,0.1-1.4,0.1
		V239.5z"/>
	<path class="st0" d="M243.3,227.6c-0.2,0.3-0.5,0.7-0.9,1.1c-0.4,0.4-0.8,0.6-1.1,0.8c-0.3-0.1-0.7-0.4-1.1-0.8
		c-0.4-0.4-0.7-0.7-0.9-1.1c0.2-0.4,0.5-0.7,0.9-1.1c0.4-0.4,0.8-0.7,1.1-0.8c0.3,0.2,0.7,0.5,1.1,0.8
		C242.8,226.9,243.1,227.3,243.3,227.6z M240,233.2c0.4-0.2,0.8-0.3,1.2-0.4c0.4-0.1,0.9-0.1,1.3-0.1v16.6c-0.3,0.2-0.7,0.3-1.2,0.4
		c-0.5,0.1-0.9,0.1-1.4,0.1V233.2z"/>
	<path class="st0" d="M260.2,247.6c-0.2,0.3-0.5,0.5-0.9,0.8c-0.3,0.3-0.8,0.5-1.2,0.8c-0.5,0.2-1,0.4-1.6,0.6
		c-0.6,0.2-1.2,0.2-2,0.2c-0.9,0-1.8-0.2-2.6-0.5s-1.6-0.8-2.3-1.5c-0.7-0.7-1.2-1.5-1.6-2.5c-0.4-1-0.6-2.2-0.6-3.6
		c0-1.3,0.3-2.5,0.8-3.7c0.5-1.2,1.2-2.2,2-3c0.9-0.8,1.9-1.5,3-2c1.1-0.5,2.3-0.7,3.6-0.7c0.9,0,1.7,0.1,2.4,0.3
		c0.7,0.2,1.3,0.4,1.7,0.6c0.5,0.2,0.9,0.5,1.2,0.8c0.3,0.3,0.5,0.5,0.7,0.7v22.5c-0.3,0.2-0.7,0.3-1.2,0.4
		c-0.5,0.1-0.9,0.1-1.4,0.1V247.6z M255.7,248.1c1.1,0,2-0.2,2.8-0.7c0.8-0.5,1.3-1,1.7-1.5v-9.8c-0.4-0.5-0.9-1-1.6-1.5
		c-0.7-0.5-1.6-0.7-2.7-0.7c-0.7,0-1.4,0.1-2.1,0.4c-0.7,0.3-1.3,0.7-1.9,1.3c-0.5,0.6-1,1.3-1.3,2.2c-0.3,0.9-0.5,1.9-0.5,3.1
		c0,1.3,0.2,2.4,0.5,3.3c0.3,0.9,0.8,1.7,1.3,2.3c0.5,0.6,1.2,1.1,1.8,1.4S255,248.1,255.7,248.1z"/>
	<path class="st0" d="M275.5,248.2c1,0,2-0.3,2.8-0.9c0.8-0.6,1.5-1.4,1.9-2.4v-11.7c0.4-0.2,0.8-0.3,1.2-0.4
		c0.4-0.1,0.9-0.1,1.3-0.1v16.6c-0.3,0.2-0.7,0.3-1.1,0.4c-0.4,0.1-0.9,0.1-1.3,0.1v-3.1c-0.2,0.4-0.5,0.7-0.9,1.1
		c-0.4,0.4-0.8,0.8-1.3,1.1c-0.5,0.3-1.1,0.6-1.8,0.8c-0.7,0.2-1.4,0.3-2.2,0.3s-1.5-0.1-2.2-0.4c-0.7-0.2-1.3-0.6-1.8-1.1
		c-0.5-0.5-0.9-1.1-1.2-1.9c-0.3-0.8-0.5-1.7-0.5-2.7v-10.7c0.4-0.2,0.8-0.3,1.2-0.4c0.4-0.1,0.9-0.1,1.3-0.1V243
		c0,1,0.1,1.8,0.4,2.5c0.2,0.7,0.6,1.2,1,1.6c0.4,0.4,0.9,0.7,1.4,0.9C274.3,248.1,274.9,248.2,275.5,248.2z"/>
	<path class="st0" d="M290.1,241.2c0.1,1.2,0.3,2.2,0.6,3c0.4,0.9,0.8,1.6,1.4,2.2c0.6,0.6,1.2,1,2,1.3s1.5,0.4,2.4,0.4
		c1.1,0,2-0.1,2.7-0.4c0.8-0.3,1.5-0.7,2.1-1.3c0.3,0.1,0.5,0.3,0.6,0.6c-0.2,0.2-0.4,0.5-0.7,0.9c-0.3,0.3-0.8,0.7-1.3,1
		c-0.5,0.3-1.2,0.6-2,0.8c-0.8,0.2-1.7,0.3-2.7,0.3c-1.1,0-2.1-0.2-3-0.6c-0.9-0.4-1.7-0.9-2.4-1.7s-1.2-1.6-1.6-2.7
		c-0.4-1.1-0.6-2.3-0.6-3.6c0-1.2,0.2-2.4,0.6-3.5c0.4-1.1,1-2.1,1.8-2.9s1.6-1.5,2.6-2c1-0.5,2.1-0.7,3.2-0.7c1.2,0,2.2,0.2,3,0.6
		c0.8,0.4,1.4,0.9,1.9,1.6c0.5,0.6,0.8,1.4,1,2.1s0.3,1.5,0.3,2.3c-0.2,0.3-0.4,0.5-0.7,0.7c-0.3,0.2-0.6,0.3-1,0.5L290.1,241.2z
		 M294.9,233.8c-0.7,0-1.3,0.1-1.9,0.4s-1.1,0.6-1.5,1.1c-0.4,0.5-0.8,1.1-1,1.9c-0.3,0.8-0.4,1.7-0.4,2.8l9.1-0.9
		c0-0.1,0-0.2,0-0.3c0-0.1,0-0.2,0-0.3c0-0.7-0.1-1.3-0.3-1.8c-0.2-0.6-0.4-1-0.8-1.5c-0.4-0.4-0.8-0.7-1.3-1
		C296.3,233.9,295.6,233.8,294.9,233.8z"/>
</g>
</svg>
