<svg xmlns="http://www.w3.org/2000/svg" viewBox="0 0 65.11 98.29"><defs><style>.cls-1{fill:none;stroke:#000;stroke-miterlimit:10;stroke-width:4px;}.cls-2{fill:#f97878;}.cls-3{fill:#ffcaca;}</style></defs><g id="Layer_2" data-name="Layer 2"><g id="Layer_1-2" data-name="Layer 1"><polygon class="cls-1" points="34.43 41.73 51.79 2 41.46 2 28.73 30.32 15.99 2 3.19 2 22.01 40.91 23.02 43 13.01 65.3 24.16 65.3 28.73 54.85 48.69 96.29 61.87 96.29 34.43 41.73"/><polygon class="cls-2" points="51.79 2 34.43 41.73 28.73 30.32 41.46 2 51.79 2"/><polygon class="cls-2" points="28.73 54.85 24.16 65.3 13.01 65.3 23.02 43 28.73 54.85"/><polygon class="cls-2" points="61.87 96.29 48.69 96.29 28.73 54.85 34.43 41.73 61.87 96.29"/><polygon class="cls-3" points="22.12 43.43 1.59 1 16.64 1 29.64 29.91 35.53 41.7 28.77 57.25 22.12 43.43"/><path d="M16,2,28.73,30.33l5.7,11.4-5.7,13.12L23,43l-1-2.09L3.19,2H16m1.29-2H0L1.39,2.87,20.21,41.78l1,2.09,5.7,11.85,1.9,3.93,1.74-4,5.7-13.12.38-.86-.42-.83L30.53,29.47,17.81,1.18,17.28,0Z"/><polygon class="cls-2" points="24.16 65.3 18.81 65.3 46.24 2 51.79 2 24.16 65.3"/></g></g></svg>