<svg xmlns="http://www.w3.org/2000/svg" viewBox="0 0 244.34 145.58"><defs><style>.cls-1,.cls-2,.cls-3{fill:#1d1d1b;}.cls-2{stroke:#1d1d1b;stroke-miterlimit:10;stroke-width:2px;}.cls-3{font-size:27.62px;font-family:FuturaPT-Medium, Futura PT;font-weight:500;}.cls-4{letter-spacing:-0.02em;}</style></defs><g id="Layer_2" data-name="Layer 2"><g id="Layer_1-2" data-name="Layer 1"><path class="cls-1" d="M16.59,29.88a7.72,7.72,0,0,0-.94,3.64V46.33a1.47,1.47,0,0,1-1.6,1.61H11.71a1.46,1.46,0,0,1-1.6-1.61V33.52a7.72,7.72,0,0,0-.94-3.64l-8-13.55a1.32,1.32,0,0,1,1.17-2H4.8a2.85,2.85,0,0,1,2.33,1.6L12,24.34c.29.51.51.8.87.8s.58-.29.87-.8l4.88-8.45A2.84,2.84,0,0,1,21,14.29h2.55a1.31,1.31,0,0,1,1.1,2Z"/><path class="cls-1" d="M46.53,13.56a11.71,11.71,0,0,0-12,11.8v21a1.46,1.46,0,0,0,1.6,1.61h2.4a1.47,1.47,0,0,0,1.61-1.61V35.12a1.45,1.45,0,0,1,1.6-1.6h9.61a1.45,1.45,0,0,1,1.6,1.6V46.33a1.47,1.47,0,0,0,1.61,1.61h2.4a1.46,1.46,0,0,0,1.6-1.61v-21A11.7,11.7,0,0,0,46.53,13.56Zm6.4,13.55a1.45,1.45,0,0,1-1.6,1.6H41.72a1.45,1.45,0,0,1-1.6-1.6V25.36a6.41,6.41,0,1,1,12.81,0Z"/><path class="cls-1" d="M141.79,14.29H139a2.35,2.35,0,0,0-2.11,1.6L132,27.62c-.15.36-.36.72-.66.72s-.5-.36-.65-.72l-4.81-11.73a2.35,2.35,0,0,0-2.11-1.6H121a1.45,1.45,0,0,0-1.6,1.6V46.33a1.46,1.46,0,0,0,1.6,1.61h2a1.46,1.46,0,0,0,1.6-1.61V28.71c0-.58.66-.73,1,0L129,36.28c.51,1.24,1.31,2,2.4,2s1.9-.87,2.41-2l3.35-7.57c.29-.73,1-.58,1,0V46.33a1.46,1.46,0,0,0,1.6,1.61h2a1.46,1.46,0,0,0,1.6-1.61V15.89A1.45,1.45,0,0,0,141.79,14.29Z"/><path class="cls-1" d="M175.44,47.94H154.61a1.46,1.46,0,0,1-1.6-1.61v-1.6a1.45,1.45,0,0,1,1.6-1.6h6a1.45,1.45,0,0,0,1.6-1.6V20.7a1.45,1.45,0,0,0-1.6-1.6H157a1.46,1.46,0,0,1-1.6-1.61v-1.6a1.45,1.45,0,0,1,1.6-1.6h16a1.45,1.45,0,0,1,1.6,1.6v1.6A1.46,1.46,0,0,1,173,19.1H169.4a1.46,1.46,0,0,0-1.61,1.6V41.53a1.46,1.46,0,0,0,1.61,1.6h6a1.45,1.45,0,0,1,1.6,1.6v1.6A1.46,1.46,0,0,1,175.44,47.94Z"/><path class="cls-1" d="M209.09,47.94h-2.77c-1,0-1.6-.73-2.11-1.61l-11.29-20.1c-.36-.72-1-.58-1,0v20.1a1.46,1.46,0,0,1-1.6,1.61h-2a1.46,1.46,0,0,1-1.6-1.61V15.89a1.45,1.45,0,0,1,1.6-1.6H191c1,0,1.6.73,2.11,1.6l11.29,19.88c.44.73,1,.59,1,0V15.89a1.45,1.45,0,0,1,1.6-1.6h2a1.45,1.45,0,0,1,1.6,1.6V46.33A1.46,1.46,0,0,1,209.09,47.94Z"/><path class="cls-1" d="M232.91,48.67a11.71,11.71,0,0,1-12-11.8V25.36a11.71,11.71,0,0,1,12-11.8,11.25,11.25,0,0,1,10.63,6.34,1.63,1.63,0,0,1-.44,2.18l-1.74,1.24a1.39,1.39,0,0,1-2.19-.36c-.65-1-2.18-4.23-6.26-4.23a6.41,6.41,0,0,0-6.41,6.63v1.75a1.45,1.45,0,0,0,1.6,1.6h7.43a1.45,1.45,0,0,1,1.6,1.6v1.6a1.46,1.46,0,0,1-1.6,1.61H228.1a1.45,1.45,0,0,0-1.6,1.6v1.75a6.41,6.41,0,0,0,6.41,6.62c4.08,0,5.46-3,6.26-4.07s1.39-1.1,2.19-.59L243,40a1.52,1.52,0,0,1,.66,2.18A11.41,11.41,0,0,1,232.91,48.67Z"/><path class="cls-1" d="M22.43,62.29H1.6A1.45,1.45,0,0,0,0,63.89v1.6A1.46,1.46,0,0,0,1.6,67.1H7.65a1.45,1.45,0,0,1,1.6,1.6V94.33a1.46,1.46,0,0,0,1.6,1.61h2.33a1.47,1.47,0,0,0,1.61-1.61V68.7a1.45,1.45,0,0,1,1.6-1.6h6A1.46,1.46,0,0,0,24,65.49v-1.6A1.45,1.45,0,0,0,22.43,62.29Z"/><path class="cls-1" d="M56.08,91.13H50a1.46,1.46,0,0,1-1.61-1.6V68.7A1.46,1.46,0,0,1,50,67.1h3.64a1.46,1.46,0,0,0,1.6-1.61v-1.6a1.45,1.45,0,0,0-1.6-1.6h-16a1.46,1.46,0,0,0-1.61,1.6v1.6a1.47,1.47,0,0,0,1.61,1.61H41.3a1.45,1.45,0,0,1,1.6,1.6V89.53a1.45,1.45,0,0,1-1.6,1.6h-6a1.45,1.45,0,0,0-1.6,1.6v1.6a1.46,1.46,0,0,0,1.6,1.61H56.08a1.46,1.46,0,0,0,1.6-1.61v-1.6A1.45,1.45,0,0,0,56.08,91.13Z"/><path class="cls-1" d="M131.38,61.56a11.71,11.71,0,0,0-12,11.8v21a1.46,1.46,0,0,0,1.6,1.61h2.4A1.47,1.47,0,0,0,125,94.33V83.12a1.45,1.45,0,0,1,1.6-1.6h9.61a1.45,1.45,0,0,1,1.6,1.6V94.33a1.47,1.47,0,0,0,1.61,1.61h2.4a1.46,1.46,0,0,0,1.6-1.61v-21A11.7,11.7,0,0,0,131.38,61.56Zm6.4,13.55a1.45,1.45,0,0,1-1.6,1.6h-9.61a1.45,1.45,0,0,1-1.6-1.6V73.36a6.41,6.41,0,1,1,12.81,0Z"/><path class="cls-1" d="M165,61.56a11.7,11.7,0,0,0-12,11.8V84.87a12,12,0,0,0,24,0V73.36A11.71,11.71,0,0,0,165,61.56Zm6.41,23.31a6.41,6.41,0,1,1-12.81,0V73.36a6.41,6.41,0,1,1,12.81,0Z"/><path class="cls-1" d="M209.09,62.29h-2.4a1.46,1.46,0,0,0-1.61,1.6v21a6.41,6.41,0,1,1-12.81,0v-21a1.46,1.46,0,0,0-1.61-1.6h-2.4a1.45,1.45,0,0,0-1.6,1.6v21a12,12,0,0,0,24,0v-21A1.45,1.45,0,0,0,209.09,62.29Z"/><path class="cls-1" d="M242.74,91.13h-6.05a1.45,1.45,0,0,1-1.6-1.6V68.7a1.45,1.45,0,0,1,1.6-1.6h3.65a1.47,1.47,0,0,0,1.6-1.61v-1.6a1.46,1.46,0,0,0-1.6-1.6h-16a1.45,1.45,0,0,0-1.6,1.6v1.6a1.46,1.46,0,0,0,1.6,1.61H228a1.46,1.46,0,0,1,1.61,1.6V89.53a1.46,1.46,0,0,1-1.61,1.6h-6a1.45,1.45,0,0,0-1.6,1.6v1.6a1.46,1.46,0,0,0,1.6,1.61h20.83a1.46,1.46,0,0,0,1.6-1.61v-1.6A1.45,1.45,0,0,0,242.74,91.13Z"/><path class="cls-2" d="M75,101.55c5.41-5.71,4-20.28,2.26-32l-2-14.07c-1.8-12.42-4.28-29,4.84-38.14.17-.12.29-.32.56-.5a2.18,2.18,0,0,1,3.09.64,2.13,2.13,0,0,1-.61,2.95c-7.51,7.73-5.23,23-3.6,34.4l2,14.07c1.6,11.54,3.3,25.55-1.62,33.36a10.2,10.2,0,0,1-2.44,2.87,2.13,2.13,0,0,1-2.94-.61A2.2,2.2,0,0,1,75,101.55Z"/><path class="cls-2" d="M98.55,86.09c5.41-5.71,4-20.28,2.26-32L98.82,40C97,27.6,94.55,11,103.66,1.88c.18-.11.3-.32.56-.49a2.17,2.17,0,0,1,3.09.64c.65,1,.43,2-.61,2.94-7.51,7.73-5.23,23-3.6,34.4l2,14.08c1.6,11.54,3.3,25.55-1.62,33.35A10.21,10.21,0,0,1,101,89.68a2.14,2.14,0,0,1-2.94-.61A2.21,2.21,0,0,1,98.55,86.09Z"/><text class="cls-3" transform="matrix(0.98, -0.19, 0.19, 0.98, 42.44, 138.26)">G<tspan class="cls-4" x="20.66" y="0">r</tspan><tspan x="29.25" y="0">aphiste</tspan></text></g></g></svg>