<svg id="Layer_1" data-name="Layer 1" xmlns="http://www.w3.org/2000/svg" viewBox="0 0 445.01 258.54"><defs><style>.cls-1,.cls-2{fill:#1d1d1b;}.cls-2{font-size:32.27px;font-family:Gotu-Regular, Gotu;}.cls-3{letter-spacing:-0.01em;}.cls-4{letter-spacing:-0.01em;}.cls-5{letter-spacing:0em;}</style></defs><path class="cls-1" d="M90.21,49.34a14.55,14.55,0,0,0-1.63,6.71V74.9a2.16,2.16,0,0,1-2.38,2.38H86A2.17,2.17,0,0,1,83.6,74.9V56.05A14.68,14.68,0,0,0,82,49.34L70.17,30.17c-1.08-1.74.11-2.93,2.06-2.93,1.3,0,2.17,1,2.92,2.17L83.39,42.3c.86,1.41,1.73,2.16,2.7,2.16s1.84-.75,2.71-2.16l8.12-12.89c.76-1.19,1.63-2.17,2.93-2.17,2,0,3.14,1.19,2.06,2.93Z"/><path class="cls-1" d="M148,77.82h-.33a2.16,2.16,0,0,1-2.38-2.38V59.63c0-3-1.73-4.77-4.77-4.77H127.71c-3,0-4.76,1.74-4.76,4.77V75.44a2.16,2.16,0,0,1-2.38,2.38h-.33a2.16,2.16,0,0,1-2.38-2.38V43.71c0-9,6.5-17,16.24-17s16.25,8,16.25,17V75.44A2.16,2.16,0,0,1,148,77.82Zm-2.71-34.11c0-6.18-4.12-12.24-11.16-12.24S123,37.53,123,43.71V46c0,3,1.73,4.77,4.76,4.77h12.78c3,0,4.77-1.74,4.77-4.77Z"/><path class="cls-1" d="M298.59,77a2.09,2.09,0,0,1-2.27-2.39V46.05c0-2.82-2.38-3.68-3.68-.65l-6,14.19c-.54,1.3-1.19,2.16-2.06,2.16s-1.52-.86-2.06-2.16L276.61,45.4c-1.3-3-3.69-2.17-3.69.65V74.64a2.28,2.28,0,1,1-4.55,0V29.37A2.17,2.17,0,0,1,270.76,27h1.4a3.51,3.51,0,0,1,3.15,2.38l6.93,17.44c.43,1.08,1.3,2.16,2.38,2.16s1.95-1.08,2.38-2.16l6.94-17.44A3.48,3.48,0,0,1,297.08,27h1.4a2.17,2.17,0,0,1,2.39,2.38V74.64A2.1,2.1,0,0,1,298.59,77Z"/><path class="cls-1" d="M396.06,77h-1.41c-1.51,0-2.49-1.09-3.14-2.39L374.18,41.39c-1.41-2.71-3.68-2.27-3.68.65v32.6a2.28,2.28,0,1,1-4.55,0V29.37A2.16,2.16,0,0,1,368.33,27h1.52c1.52,0,2.49,1.08,3.14,2.38l17.22,32.82c1.41,2.71,3.69,2.27,3.69-.65V29.37a2.27,2.27,0,1,1,4.54,0V74.64A2.17,2.17,0,0,1,396.06,77Z"/><path class="cls-1" d="M429.78,78.11c-9.75,0-16.24-8-16.24-17V42.91c0-9,6.49-17,16.24-17a15.2,15.2,0,0,1,13.76,7.91,2.55,2.55,0,0,1-.76,3.36,2.35,2.35,0,0,1-3.36-.65c-1.62-2.49-4.22-5.85-9.64-5.85-7,0-11.15,6.07-11.15,12.24v2.27c0,3,1.73,4.77,4.76,4.77h10.18c1.52,0,2.39.87,2.39,2.06s-.87,2.05-2.39,2.05H423.39c-3,0-4.76,1.74-4.76,4.77v2.28c0,6.17,4.11,12.23,11.15,12.23,5.42,0,8.13-3.35,9.86-5.85a2.37,2.37,0,0,1,3.36-.75,2.54,2.54,0,0,1,.75,3.35A15.33,15.33,0,0,1,429.78,78.11Z"/><path class="cls-1" d="M67.38,135.07h-6.5c-3,0-4.76,1.73-4.76,4.77v38.77A2.17,2.17,0,0,1,53.73,181h-.32A2.17,2.17,0,0,1,51,178.61V139.84c0-3-1.73-4.77-4.76-4.77H39.65a2.08,2.08,0,1,1,0-4.12H67.38a2.08,2.08,0,1,1,0,4.12Z"/><path class="cls-1" d="M248.93,181h-.33a2.16,2.16,0,0,1-2.38-2.38V162.8c0-3-1.73-4.77-4.76-4.77H228.68c-3,0-4.77,1.73-4.77,4.77v15.81a2.16,2.16,0,0,1-2.38,2.38h-.33a2.16,2.16,0,0,1-2.38-2.38V146.88c0-9,6.5-17,16.24-17s16.25,8,16.25,17v31.73A2.16,2.16,0,0,1,248.93,181Zm-2.71-34.11c0-6.18-4.11-12.24-11.16-12.24s-11.15,6.06-11.15,12.24v2.27c0,3,1.73,4.77,4.77,4.77h12.78c3,0,4.76-1.74,4.76-4.77Z"/><path class="cls-1" d="M282.41,182.08c-9.74,0-16.24-8-16.24-17V146.88c0-9,6.5-17,16.24-17s16.25,8,16.25,17v18.19C298.66,174.06,292.16,182.08,282.41,182.08Zm11.16-35.2c0-6.18-4.11-12.24-11.16-12.24s-11.15,6.06-11.15,12.24v18.19c0,6.18,4.12,12.24,11.15,12.24s11.16-6.06,11.16-12.24Z"/><path class="cls-1" d="M330.71,182.08c-9.75,0-16.24-8-16.24-17V133.34a2.17,2.17,0,0,1,2.38-2.39h.32a2.17,2.17,0,0,1,2.39,2.39v31.73c0,6.18,4.11,12.24,11.15,12.24s11.16-6.06,11.16-12.24V133.34a2.17,2.17,0,0,1,2.38-2.39h.32a2.17,2.17,0,0,1,2.39,2.39v31.73C347,174.06,340.46,182.08,330.71,182.08Z"/><rect class="cls-1" x="99.18" y="130.96" width="4.9" height="50.03" rx="2.45"/><rect class="cls-1" x="376.82" y="130.96" width="4.9" height="50.03" rx="2.45"/><rect class="cls-1" x="331.03" y="26.99" width="4.9" height="50.03" rx="2.45"/><path class="cls-1" d="M180.25,151.77a2.26,2.26,0,0,1-.43-4.47c20.21-4,26.28-37.53,32.14-70C218.39,41.8,225,5.05,250.35-.4A2.26,2.26,0,0,1,253,1.33,2.26,2.26,0,0,1,251.3,4c-22.36,4.82-28.74,40.06-34.9,74.14-6.42,35.48-12.48,69-35.71,73.59A3.13,3.13,0,0,1,180.25,151.77Z"/><path class="cls-1" d="M117.89,210.75a2.26,2.26,0,0,1-.43-4.47c20.21-4,26.28-37.53,32.14-70C156,100.78,162.67,64,188,58.58a2.25,2.25,0,1,1,.95,4.4C166.57,67.8,160.2,103,154,137.12c-6.42,35.48-12.48,69-35.71,73.59A3.27,3.27,0,0,1,117.89,210.75Z"/><text class="cls-2" transform="translate(0 249.53)">desi<tspan class="cls-3" x="63.79" y="0">g</tspan><tspan x="81.96" y="0">ner </tspan><tspan class="cls-3" x="144.27" y="0">g</tspan><tspan class="cls-4" x="162.44" y="0">r</tspan><tspan class="cls-5" x="177.38" y="0">aphique</tspan></text></svg>